<svg id="Layer_1" data-name="Layer 1" xmlns="http://www.w3.org/2000/svg" viewBox="0 0 253.679 77.302"><defs><style>.cls-1{fill:#4f4e43;}.cls-10,.cls-12,.cls-14,.cls-16,.cls-18,.cls-19,.cls-2,.cls-20,.cls-21,.cls-23,.cls-24,.cls-4,.cls-6,.cls-8{fill:none;}.cls-2{stroke:#4f4e43;}.cls-12,.cls-14,.cls-16,.cls-18,.cls-2,.cls-20,.cls-4,.cls-6,.cls-8{stroke-miterlimit:7.661;}.cls-10,.cls-2{stroke-width:0.197px;}.cls-3{fill:#607c5e;}.cls-4{stroke:#dce27c;stroke-width:0.088px;}.cls-5{fill:#4e4b34;}.cls-6{stroke:#4e4b34;stroke-width:0.779px;}.cls-7{fill:#fff;}.cls-8{stroke:#858273;}.cls-16,.cls-8{stroke-width:0.581px;}.cls-9{fill:#dce27c;}.cls-10,.cls-24{stroke:#a4b09e;}.cls-10,.cls-19,.cls-21,.cls-23,.cls-24{stroke-miterlimit:10;}.cls-11{fill:#eaeef2;}.cls-12{stroke:#eaeef2;stroke-width:0.219px;}.cls-13{fill:#aec737;}.cls-14{stroke:#aec737;}.cls-14,.cls-18{stroke-width:0.384px;}.cls-15{fill:#ffcb05;}.cls-16{stroke:#ffcb05;}.cls-17{fill:#008c46;}.cls-18{stroke:#008c46;}.cls-19{stroke:#5fb246;}.cls-19,.cls-21,.cls-23,.cls-24{stroke-width:0.388px;}.cls-20{stroke:#fff;stroke-width:1.097px;}.cls-21{stroke:#607c5e;}.cls-22{fill:#3d6944;}.cls-23{stroke:#3d6944;}</style></defs><path class="cls-1" d="M43.912,116.06H209a32.908,32.908,0,0,1,3.232-2.066,36.652,36.652,0,1,1,4.5,63.153,37.57,37.57,0,0,1-9.537-5.669H43.912c-13.615,0-24.795-12.451-24.795-27.709,0-15.206,11.18-27.709,24.8-27.709" transform="translate(-17.161 -105.349)"/><path class="cls-2" d="M43.874,116.023H209.026a33.745,33.745,0,0,1,3.232-2.069,36.7,36.7,0,1,1,4.506,63.235,37.471,37.471,0,0,1-9.54-5.676H43.874c-13.621,0-24.8-12.466-24.8-27.744C19.07,128.542,30.253,116.023,43.874,116.023Z" transform="translate(-17.161 -105.349)"/><path class="cls-1" d="M208.683,115.636l-166.359.053c-10.6.424-19.552,7.9-23.26,18.278a32.145,32.145,0,0,0,2.119,25.749,25.782,25.782,0,0,0,21.3,13.616H206.776c19.073,14.677,43.921,11.02,56.371-5.827a37.756,37.756,0,0,0,2.013-42.332c-11.6-19.285-38.676-23.895-56.477-9.537" transform="translate(-17.161 -105.349)"/><path class="cls-2" d="M208.707,115.6l-166.423.053c-10.6.424-19.557,7.9-23.267,18.3a32.21,32.21,0,0,0,2.12,25.781,25.791,25.791,0,0,0,21.306,13.633H206.8c19.08,14.695,43.937,11.033,56.392-5.835a37.831,37.831,0,0,0,2.013-42.385C253.6,105.839,226.515,101.224,208.707,115.6Z" transform="translate(-17.161 -105.349)"/><path class="cls-3" d="M42.7,114.788H207.785a33.223,33.223,0,0,1,3.233-2.065,36.652,36.652,0,1,1,4.5,63.152,38.936,38.936,0,0,1-9.536-5.616H42.7c-13.617,0-24.8-12.5-24.8-27.762,0-15.206,11.179-27.709,24.8-27.709" transform="translate(-17.161 -105.349)"/><path class="cls-4" d="M43.259,114.772H208.376a33.543,33.543,0,0,1,3.232-2.068,36.673,36.673,0,1,1,4.5,63.19,38.924,38.924,0,0,1-9.539-5.618H43.259c-13.619,0-24.8-12.512-24.8-27.779C18.46,127.282,29.64,114.772,43.259,114.772Z" transform="translate(-17.161 -105.349)"/><path class="cls-5" d="M147.754,126.178c-1.8.16-2.648.743-2.648,1.644a1.6,1.6,0,0,0,.264.848,1,1,0,0,0,.795.317,1.309,1.309,0,0,0,1.112-.583,2.115,2.115,0,0,0,.477-1.43Zm2.65,4.292h-2.437a9.889,9.889,0,0,1-.106-1.431,3.583,3.583,0,0,1-1.272,1.272,3.541,3.541,0,0,1-1.483.319,2.559,2.559,0,0,1-1.907-.69,2.22,2.22,0,0,1-.8-1.8,3.043,3.043,0,0,1,1.855-2.7,12.087,12.087,0,0,1,3.5-.583v-.529a1.123,1.123,0,0,0-1.27-1.273A1.341,1.341,0,0,0,145,124.326l-2.331-.213a2.787,2.787,0,0,1,1.378-2.172,5.431,5.431,0,0,1,2.648-.637,5.563,5.563,0,0,1,1.643.213,3.016,3.016,0,0,1,1.165.636,1.564,1.564,0,0,1,.582.9,5.683,5.683,0,0,1,.16,1.642v4.08a6.456,6.456,0,0,0,.159,1.695m-9.537-9.748h-2.542v-2.65h2.542Zm0,9.748h-2.542v-9.007h2.542Zm-6.093,0h-2.49v-9h2.332v1.694c.371-1.272,1.006-1.855,1.854-1.855h.477v2.6a2.613,2.613,0,0,0-1.219.263,1.787,1.787,0,0,0-.688.9,5,5,0,0,0-.266,1.749Zm-7.047-4.292c-1.8.16-2.7.743-2.7,1.644a1.3,1.3,0,0,0,.319.848.927.927,0,0,0,.793.317,1.464,1.464,0,0,0,1.114-.583,2.124,2.124,0,0,0,.475-1.43Zm2.65,4.292H127.94a5.606,5.606,0,0,1-.106-1.431,4.68,4.68,0,0,1-1.272,1.272,3.537,3.537,0,0,1-1.483.319,2.772,2.772,0,0,1-1.96-.69,2.351,2.351,0,0,1-.743-1.8,3.043,3.043,0,0,1,1.855-2.7,12.109,12.109,0,0,1,3.5-.583v-.529a1.123,1.123,0,0,0-1.27-1.273,1.314,1.314,0,0,0-1.484,1.273l-2.331-.213a2.787,2.787,0,0,1,1.378-2.172,5.431,5.431,0,0,1,2.648-.637,5.209,5.209,0,0,1,1.59.213,2.9,2.9,0,0,1,1.218.636,2.364,2.364,0,0,1,.582.9,5.674,5.674,0,0,1,.161,1.642v4.08a6.466,6.466,0,0,0,.158,1.695m-11.073,0h-2.437v-9H119.2v1.694c.369-1.272.953-1.855,1.852-1.855h.477v2.6a2.451,2.451,0,0,0-1.217.263,1.776,1.776,0,0,0-.688.9,3.95,3.95,0,0,0-.319,1.749Zm-9.536-5.562h3.019c-.053-1.272-.53-1.855-1.431-1.855-.953,0-1.483.583-1.588,1.855m5.509,1.536h-5.509v.371a2,2,0,0,0,.476,1.484,1.643,1.643,0,0,0,1.165.476,1.476,1.476,0,0,0,1.538-1.43l2.277.211c-.635,2.067-1.907,3.074-3.868,3.074a4.009,4.009,0,0,1-2.171-.53,4.546,4.546,0,0,1-1.483-1.538,4.68,4.68,0,0,1-.584-2.489,4.848,4.848,0,0,1,1.166-3.444,3.754,3.754,0,0,1,3.02-1.325,3.7,3.7,0,0,1,2.808,1.22,5.417,5.417,0,0,1,1.165,3.92m-9.748,4.026h-2.543v-5.032a7.352,7.352,0,0,0-.052-1.273,1.29,1.29,0,0,0-.319-.582,1.073,1.073,0,0,0-.69-.211c-.9,0-1.323.688-1.323,2.066v5.032H98.058v-9h2.384V123a3.1,3.1,0,0,1,1.114-1.378,2.645,2.645,0,0,1,1.27-.319,2.77,2.77,0,0,1,1.96.69,3.736,3.736,0,0,1,.743,2.7Zm-9.537-9v9H93.661v-1.536a2.514,2.514,0,0,1-2.543,1.7,2.463,2.463,0,0,1-1.483-.371,2.385,2.385,0,0,1-.742-1.007,6.089,6.089,0,0,1-.212-1.907v-5.88h2.437v5.88c0,.795.317,1.217.954,1.217a1.614,1.614,0,0,0,.848-.263,1.511,1.511,0,0,0,.424-.636,4.837,4.837,0,0,0,.106-1.113v-5.085Zm-8.106-.743h-5.4v2.7h4.291V125.7H82.483v4.769H79.674V118.338h8.212Z" transform="translate(-17.161 -105.349)"/><path class="cls-5" d="M49.263,136.564l.106,16.423c.053,12.026-16.159,8.743-13.986-.954l5.774.053-.053,3.338c0,.637,1.642.743,2.013.477.372-.211.319-1.378.319-1.747V136.617Zm17.96,5.722v17.43h-4.45v-2.967a5.3,5.3,0,0,1-7.629,2.6,4.2,4.2,0,0,1-1.378-2.015,10.885,10.885,0,0,1-.477-3.654V142.286h4.716v11.391c0,1.536.582,2.331,1.8,2.331a2.854,2.854,0,0,0,1.589-.531,2.552,2.552,0,0,0,.848-1.218,9.459,9.459,0,0,0,.212-2.173v-9.8Zm13.14,9.059c-3.391.372-5.034,1.431-5.034,3.286a2.5,2.5,0,0,0,.531,1.588,1.776,1.776,0,0,0,1.484.636,2.523,2.523,0,0,0,2.118-1.112,4.467,4.467,0,0,0,.9-2.809Zm5.087,8.371H80.787a12.789,12.789,0,0,1-.213-2.754,7.257,7.257,0,0,1-2.437,2.49,6.08,6.08,0,0,1-2.808.635,5.253,5.253,0,0,1-3.707-1.378,4.706,4.706,0,0,1-1.378-3.549,6.141,6.141,0,0,1,.793-3.021,5.8,5.8,0,0,1,2.65-2.171,26.385,26.385,0,0,1,6.676-1.165v-1.008q0-2.542-2.384-2.543a2.519,2.519,0,0,0-2.808,2.543l-4.45-.424a5.334,5.334,0,0,1,2.648-4.237,9.977,9.977,0,0,1,4.928-1.22,12.432,12.432,0,0,1,3.178.424,5.5,5.5,0,0,1,2.279,1.22,5.376,5.376,0,0,1,1.112,1.747,11.851,11.851,0,0,1,.265,3.232v7.894a11.973,11.973,0,0,0,.319,3.285m17.854,0H98.483v-9.8a22.082,22.082,0,0,0-.106-2.437,2.377,2.377,0,0,0-.637-1.114,1.906,1.906,0,0,0-1.27-.477c-1.7,0-2.545,1.378-2.545,4.028v9.8H89.1v-17.43h4.5V145.2a6.645,6.645,0,0,1,2.171-2.7,5.293,5.293,0,0,1,2.384-.583,5.134,5.134,0,0,1,3.709,1.325c.954.9,1.431,2.648,1.431,5.3Zm83.5-14.464a2.213,2.213,0,0,0-2.013,1.165c-.477.743-.743,2.279-.743,4.5a9.924,9.924,0,0,0,.69,4.4A2.163,2.163,0,0,0,186.8,156.7a2.206,2.206,0,0,0,1.96-1.165c.529-.742.795-2.225.795-4.346a11.469,11.469,0,0,0-.69-4.713,2.188,2.188,0,0,0-2.065-1.22m-.106-3.338a7,7,0,0,1,5.828,2.6,10.2,10.2,0,0,1,2.065,6.515,9.463,9.463,0,0,1-2.171,6.465,7,7,0,0,1-5.722,2.595,6.8,6.8,0,0,1-5.616-2.595,10,10,0,0,1-2.066-6.518,10.918,10.918,0,0,1,.954-4.768,7.846,7.846,0,0,1,2.595-3.125,6.7,6.7,0,0,1,4.133-1.167m-15.524-5.774h4.821v23.576h-4.821Zm-13.193,16.636a4.58,4.58,0,0,0,.69,2.808,2.286,2.286,0,0,0,1.749.9,2.325,2.325,0,0,0,1.96-1.114c.529-.74.793-2.224.793-4.4,0-2.489-.264-4.026-.793-4.663a2.471,2.471,0,0,0-1.855-.953,2.219,2.219,0,0,0-1.854,1.059,5.626,5.626,0,0,0-.69,3.074Zm0-16.636v8.317a4.209,4.209,0,0,1,4.028-2.543,5.051,5.051,0,0,1,4.449,2.437,11.86,11.86,0,0,1,1.644,6.623,11.608,11.608,0,0,1-1.7,6.57,5.459,5.459,0,0,1-4.821,2.543,5.1,5.1,0,0,1-2.7-.635,6.208,6.208,0,0,1-2.066-2.437,7.336,7.336,0,0,0-1.059,2.7h-2.6V136.14Zm-13.562,15.205c-3.391.372-5.087,1.431-5.087,3.286a2.5,2.5,0,0,0,.531,1.588,1.884,1.884,0,0,0,1.536.636,2.59,2.59,0,0,0,2.119-1.112,4.467,4.467,0,0,0,.9-2.809Zm5.086,8.371h-4.662a12.874,12.874,0,0,1-.211-2.754,6.924,6.924,0,0,1-2.492,2.49,5.857,5.857,0,0,1-2.754.635,5.169,5.169,0,0,1-3.709-1.378,4.52,4.52,0,0,1-1.377-3.549,6.122,6.122,0,0,1,.795-3.021,5.524,5.524,0,0,1,2.648-2.171,26.367,26.367,0,0,1,6.676-1.165v-1.008q0-2.542-2.385-2.543a2.592,2.592,0,0,0-2.861,2.543l-4.4-.424a5.285,5.285,0,0,1,2.6-4.237,10.329,10.329,0,0,1,4.981-1.22,11.723,11.723,0,0,1,3.125.424,4.567,4.567,0,0,1,3.445,2.967,14.6,14.6,0,0,1,.264,3.232v7.894a11.983,11.983,0,0,0,.318,3.285m-28.662-13.033h3.338a3.043,3.043,0,0,0,3.5-3.125,3.263,3.263,0,0,0-.848-2.279,3.627,3.627,0,0,0-2.648-.848h-3.338Zm.158,4.291v8.742h-5.245V136.14h8.689a10.853,10.853,0,0,1,4.451.688,6.146,6.146,0,0,1,2.754,2.384,7,7,0,0,1,1.219,4.186,9.415,9.415,0,0,1-.635,3.39,6.3,6.3,0,0,1-1.855,2.6,6.608,6.608,0,0,1-2.278,1.271,13.375,13.375,0,0,1-3.444.318Z" transform="translate(-17.161 -105.349)"/><path class="cls-6" d="M49.107,136.381l.107,16.677c.053,12.211-16.2,8.875-14.019-.97l5.788.055-.054,3.389c0,.645,1.647.753,2.018.483.371-.214.319-1.4.319-1.775V136.435Zm18,5.81v17.7H62.65v-3.014a4.74,4.74,0,0,1-4.78,3.389A4.692,4.692,0,0,1,55,159.512a4.235,4.235,0,0,1-1.381-2.043,11.2,11.2,0,0,1-.478-3.713V142.191H57.87v11.565c0,1.561.584,2.367,1.807,2.367a2.842,2.842,0,0,0,1.592-.537,2.614,2.614,0,0,0,.85-1.237,9.794,9.794,0,0,0,.213-2.206v-9.952Zm13.17,9.2c-3.4.376-5.045,1.451-5.045,3.336a2.563,2.563,0,0,0,.531,1.613,1.774,1.774,0,0,0,1.487.646,2.52,2.52,0,0,0,2.124-1.13,4.566,4.566,0,0,0,.9-2.852Zm5.1,8.5H80.706a13.215,13.215,0,0,1-.212-2.8,7.351,7.351,0,0,1-2.443,2.529,6.051,6.051,0,0,1-2.815.644,5.241,5.241,0,0,1-3.718-1.4,4.818,4.818,0,0,1-1.379-3.606,6.28,6.28,0,0,1,.8-3.065,5.813,5.813,0,0,1,2.655-2.206,26.156,26.156,0,0,1,6.692-1.183v-1.022q0-2.583-2.39-2.583a2.537,2.537,0,0,0-2.813,2.583l-4.462-.431a5.43,5.43,0,0,1,2.655-4.3,9.922,9.922,0,0,1,4.939-1.237,12.314,12.314,0,0,1,3.186.431,4.625,4.625,0,0,1,3.4,3.013,12.2,12.2,0,0,1,.265,3.281v8.015A12.346,12.346,0,0,0,85.38,159.89Zm17.9,0H98.444v-9.952a22.478,22.478,0,0,0-.107-2.476,2.415,2.415,0,0,0-.637-1.129,1.892,1.892,0,0,0-1.274-.484c-1.7,0-2.55,1.4-2.55,4.089v9.952H89.043v-17.7h4.515v2.959a6.736,6.736,0,0,1,2.177-2.744,5.24,5.24,0,0,1,2.391-.592,5.11,5.11,0,0,1,3.716,1.345c.957.915,1.434,2.69,1.434,5.38Zm83.7-14.687a2.21,2.21,0,0,0-2.016,1.184c-.479.753-.745,2.312-.745,4.572a10.217,10.217,0,0,0,.69,4.465,2.172,2.172,0,0,0,2.071,1.4,2.2,2.2,0,0,0,1.965-1.184c.532-.753.8-2.259.8-4.411a11.829,11.829,0,0,0-.689-4.788A2.2,2.2,0,0,0,186.971,145.2Zm-.106-3.389a6.975,6.975,0,0,1,5.842,2.636,10.453,10.453,0,0,1,2.071,6.618,9.681,9.681,0,0,1-2.176,6.561,6.981,6.981,0,0,1-5.737,2.636,6.771,6.771,0,0,1-5.628-2.636,10.239,10.239,0,0,1-2.071-6.616,11.235,11.235,0,0,1,.955-4.842,7.951,7.951,0,0,1,2.6-3.173A6.652,6.652,0,0,1,186.865,141.814Zm-15.559-5.862h4.833V159.89h-4.833Zm-13.225,16.889a4.684,4.684,0,0,0,.692,2.852,2.281,2.281,0,0,0,1.752.915,2.327,2.327,0,0,0,1.966-1.129c.529-.753.795-2.261.795-4.466,0-2.528-.266-4.089-.795-4.733a2.466,2.466,0,0,0-1.86-.969,2.215,2.215,0,0,0-1.858,1.076,5.76,5.76,0,0,0-.692,3.12Zm0-16.889V144.4a4.214,4.214,0,0,1,4.037-2.583,5.047,5.047,0,0,1,4.46,2.474,12.176,12.176,0,0,1,1.647,6.725,11.9,11.9,0,0,1-1.7,6.67,5.45,5.45,0,0,1-4.831,2.582,5.08,5.08,0,0,1-2.71-.644,6.271,6.271,0,0,1-2.071-2.476,7.531,7.531,0,0,0-1.061,2.745h-2.6V135.952ZM144.487,151.39c-3.4.376-5.1,1.451-5.1,3.336a2.558,2.558,0,0,0,.532,1.613,1.878,1.878,0,0,0,1.539.646,2.592,2.592,0,0,0,2.126-1.13,4.565,4.565,0,0,0,.9-2.852Zm5.1,8.5h-4.674a13.34,13.34,0,0,1-.213-2.8,6.966,6.966,0,0,1-2.5,2.529,5.834,5.834,0,0,1-2.762.644,5.144,5.144,0,0,1-3.716-1.4,4.619,4.619,0,0,1-1.381-3.606,6.272,6.272,0,0,1,.8-3.065,5.541,5.541,0,0,1,2.655-2.206,26.137,26.137,0,0,1,6.691-1.183v-1.022q0-2.583-2.391-2.583a2.608,2.608,0,0,0-2.866,2.583l-4.409-.431a5.382,5.382,0,0,1,2.6-4.3,10.275,10.275,0,0,1,4.993-1.237,11.607,11.607,0,0,1,3.132.431,5.4,5.4,0,0,1,2.337,1.237A5.467,5.467,0,0,1,149,145.258a14.889,14.889,0,0,1,.265,3.281v8.015A12.346,12.346,0,0,0,149.585,159.89Zm-28.73-13.233H124.2a3.327,3.327,0,0,0,2.708-.97,3.413,3.413,0,0,0,.8-2.205,3.331,3.331,0,0,0-.85-2.313,3.6,3.6,0,0,0-2.655-.861h-3.345Zm.159,4.356v8.877h-5.258V135.952h8.71a10.744,10.744,0,0,1,4.46.7,6.183,6.183,0,0,1,2.763,2.421,7.178,7.178,0,0,1,1.221,4.249,9.657,9.657,0,0,1-.637,3.444,6.4,6.4,0,0,1-1.86,2.636,6.628,6.628,0,0,1-2.282,1.291,13.306,13.306,0,0,1-3.452.322Z" transform="translate(-17.161 -105.349)"/><path class="cls-7" d="M48.416,135.928l.106,16.423c.053,12.027-16.16,8.743-13.988-.953l5.776.053v3.337c-.054.637,1.589.743,1.96.477.37-.211.37-1.378.37-1.747V135.981Zm18.012,5.722v17.43H61.979v-2.967a4.745,4.745,0,0,1-4.821,3.338,4.665,4.665,0,0,1-2.809-.741,3.743,3.743,0,0,1-1.43-2.014,11.066,11.066,0,0,1-.424-3.655V141.65h4.663v11.391c0,1.536.582,2.332,1.8,2.332a2.4,2.4,0,0,0,1.589-.532,2.237,2.237,0,0,0,.848-1.217,7.172,7.172,0,0,0,.211-2.173v-9.8Zm13.088,9.06c-3.338.371-5.034,1.483-5.034,3.285a2.511,2.511,0,0,0,.529,1.589,1.889,1.889,0,0,0,1.538.635,2.592,2.592,0,0,0,2.119-1.112,4.436,4.436,0,0,0,.848-2.808Zm5.085,8.37H79.993a12.235,12.235,0,0,1-.266-2.756,6.821,6.821,0,0,1-2.437,2.492,5.867,5.867,0,0,1-2.755.635,5.366,5.366,0,0,1-3.708-1.325,4.748,4.748,0,0,1-1.43-3.6,5.682,5.682,0,0,1,.846-3.021,5.174,5.174,0,0,1,2.65-2.118,23.589,23.589,0,0,1,6.623-1.219v-1.007c0-1.694-.8-2.49-2.332-2.49a2.525,2.525,0,0,0-2.861,2.49l-4.449-.424a5.549,5.549,0,0,1,2.648-4.237,10.34,10.34,0,0,1,4.981-1.219,11.683,11.683,0,0,1,3.125.424,5.184,5.184,0,0,1,2.278,1.217,4.05,4.05,0,0,1,1.112,1.749,11.3,11.3,0,0,1,.319,3.233v7.893a15.447,15.447,0,0,0,.264,3.285m17.855,0H97.635v-9.8a13.524,13.524,0,0,0-.107-2.437,2.357,2.357,0,0,0-.635-1.113,1.726,1.726,0,0,0-1.272-.477c-1.695,0-2.49,1.377-2.49,4.027v9.8H88.31V141.65h4.45v2.914a6.706,6.706,0,0,1,2.225-2.7,4.9,4.9,0,0,1,2.332-.582,5.053,5.053,0,0,1,3.709,1.325c.954.9,1.43,2.648,1.43,5.3Zm83.551-14.411a2.258,2.258,0,0,0-2.067,1.112c-.477.743-.688,2.279-.688,4.5a10.963,10.963,0,0,0,.635,4.4,2.278,2.278,0,0,0,4.08.213,8.942,8.942,0,0,0,.741-4.346c0-2.277-.211-3.868-.688-4.661a2.081,2.081,0,0,0-2.013-1.22m-.105-3.39a6.965,6.965,0,0,1,5.775,2.595,9.943,9.943,0,0,1,2.118,6.517,9.73,9.73,0,0,1-2.171,6.465,7.108,7.108,0,0,1-5.777,2.595,6.972,6.972,0,0,1-5.614-2.542,10.155,10.155,0,0,1-2.068-6.57,10.948,10.948,0,0,1,.954-4.769,8.321,8.321,0,0,1,2.6-3.126,6.87,6.87,0,0,1,4.186-1.165M170.325,135.5h4.821V159.08h-4.821Zm-13.193,16.689a4.493,4.493,0,0,0,.742,2.755,2.191,2.191,0,0,0,1.695.9,2.263,2.263,0,0,0,1.962-1.113c.529-.741.793-2.224.793-4.4,0-2.49-.264-4.026-.793-4.663a2.376,2.376,0,0,0-1.8-.954,2.238,2.238,0,0,0-1.907,1.059,5.626,5.626,0,0,0-.69,3.074Zm0-16.689v8.317a4.309,4.309,0,0,1,4.027-2.542,4.99,4.99,0,0,1,4.45,2.437,11.521,11.521,0,0,1,1.644,6.675,11.039,11.039,0,0,1-1.7,6.518,5.4,5.4,0,0,1-4.821,2.542,5.1,5.1,0,0,1-2.7-.635,6.177,6.177,0,0,1-2.066-2.437,8.473,8.473,0,0,0-1.059,2.7h-2.544V135.5ZM143.569,150.71c-3.39.371-5.086,1.483-5.086,3.285a2.566,2.566,0,0,0,.582,1.589,1.779,1.779,0,0,0,1.483.635,2.685,2.685,0,0,0,2.173-1.112,4.43,4.43,0,0,0,.848-2.808Zm5.085,8.37h-4.661a12.808,12.808,0,0,1-.212-2.756,7.247,7.247,0,0,1-2.437,2.492,6.084,6.084,0,0,1-2.809.635,5.233,5.233,0,0,1-3.654-1.325,4.746,4.746,0,0,1-1.431-3.6,6.132,6.132,0,0,1,.794-3.021,5.393,5.393,0,0,1,2.65-2.118,23.648,23.648,0,0,1,6.675-1.219v-1.007c0-1.694-.795-2.49-2.384-2.49a2.481,2.481,0,0,0-2.808,2.49l-4.45-.424a5.419,5.419,0,0,1,2.648-4.237,10.136,10.136,0,0,1,4.927-1.219,12.384,12.384,0,0,1,3.179.424,5.188,5.188,0,0,1,2.279,1.217,5.38,5.38,0,0,1,1.112,1.749,11.812,11.812,0,0,1,.266,3.233v7.893a12.077,12.077,0,0,0,.316,3.285m-28.662-13.033h3.392a3.152,3.152,0,0,0,2.648-.954,3.331,3.331,0,0,0,.8-2.173,3.032,3.032,0,0,0-.849-2.276,3.531,3.531,0,0,0-2.649-.849h-3.338Zm.213,4.292v8.741h-5.3V135.5h8.741a10.728,10.728,0,0,1,4.4.688,6.15,6.15,0,0,1,2.756,2.384,6.654,6.654,0,0,1,1.219,4.186,9.376,9.376,0,0,1-.637,3.391,5.883,5.883,0,0,1-1.8,2.6,6.374,6.374,0,0,1-2.331,1.27,13.1,13.1,0,0,1-3.446.319Z" transform="translate(-17.161 -105.349)"/><path class="cls-8" d="M232.206,112.051h0a30.976,30.976,0,0,1,30.922,30.922v.055A31.075,31.075,0,0,1,247.694,169.8a30.978,30.978,0,0,1-46.464-26.771A30.982,30.982,0,0,1,216.719,116.2,29.429,29.429,0,0,1,232.206,112.051Z" transform="translate(-17.161 -105.349)"/><path class="cls-9" d="M43.277,114.841H208.366a25.947,25.947,0,0,1,3.23-2.118,36.626,36.626,0,1,1,20.611,66.914,35.847,35.847,0,0,1-16.107-3.762,35.876,35.876,0,0,1-9.536-5.616H43.277c-13.617,0-24.848-12.45-24.848-27.709s11.231-27.709,24.848-27.709m164.77-1.006-165.618.052c-10.544.424-19.5,7.843-23.154,18.173A32.089,32.089,0,0,0,21.342,157.7a25.709,25.709,0,0,0,21.245,13.562H206.14c18.967,14.677,43.763,11.02,56.16-5.774a37.6,37.6,0,0,0,1.96-42.12c-11.5-19.231-38.465-23.789-56.213-9.536" transform="translate(-17.161 -105.349)"/><path class="cls-10" d="M208.071,113.8l-165.682.053c-10.546.424-19.5,7.851-23.16,18.195A32.158,32.158,0,0,0,21.3,157.722,25.722,25.722,0,0,0,42.55,171.3H206.164c18.973,14.694,43.779,11.034,56.18-5.782a37.684,37.684,0,0,0,1.962-42.174C252.8,104.09,225.827,99.528,208.071,113.8Z" transform="translate(-17.161 -105.349)"/><path class="cls-10" d="M43.238,114.805H208.39a26.112,26.112,0,0,1,3.232-2.122,36.662,36.662,0,1,1,20.618,67,35.819,35.819,0,0,1-16.112-3.767,35.857,35.857,0,0,1-9.541-5.623H43.238c-13.621,0-24.857-12.467-24.857-27.744S29.617,114.805,43.238,114.805Z" transform="translate(-17.161 -105.349)"/><path class="cls-7" d="M146.907,125.967c-1.8.213-2.65.743-2.65,1.643a1.043,1.043,0,0,0,.266.794,1,1,0,0,0,.8.318,1.4,1.4,0,0,0,1.112-.529,2.214,2.214,0,0,0,.477-1.431Zm2.648,4.186h-2.437a5.029,5.029,0,0,1-.1-1.378,4.768,4.768,0,0,1-1.271,1.272,3.572,3.572,0,0,1-1.485.317,3.039,3.039,0,0,1-1.96-.688,2.244,2.244,0,0,1-.688-1.8,2.433,2.433,0,0,1,.424-1.483,2.677,2.677,0,0,1,1.378-1.112,12.107,12.107,0,0,1,3.5-.584v-.477a1.124,1.124,0,0,0-1.272-1.27,1.312,1.312,0,0,0-1.483,1.27l-2.332-.264a2.692,2.692,0,0,1,1.378-2.066,5.444,5.444,0,0,1,2.65-.637,5.207,5.207,0,0,1,1.589.213,2.618,2.618,0,0,1,1.219.583,2.864,2.864,0,0,1,.582.9,5.744,5.744,0,0,1,.159,1.641v3.921a5.813,5.813,0,0,0,.158,1.643m-9.536-9.484h-2.49v-2.542h2.49Zm0,9.484h-2.49v-8.741h2.49Zm-6.039,0h-2.49v-8.741h2.33v1.641c.371-1.219.955-1.8,1.856-1.8h.422V123.8a2.364,2.364,0,0,0-1.165.264,1.418,1.418,0,0,0-.689.848,3.941,3.941,0,0,0-.264,1.694Zm-7.047-4.186c-1.8.213-2.648.743-2.648,1.643a1.042,1.042,0,0,0,.264.794,1.076,1.076,0,0,0,.795.318,1.4,1.4,0,0,0,1.112-.529,2.214,2.214,0,0,0,.477-1.431Zm2.65,4.186h-2.437a4.938,4.938,0,0,1-.107-1.378,4.124,4.124,0,0,1-1.271,1.272,3.238,3.238,0,0,1-1.483.317,2.786,2.786,0,0,1-1.907-.688,2.118,2.118,0,0,1-.743-1.8,2.433,2.433,0,0,1,.424-1.483,2.677,2.677,0,0,1,1.378-1.112,12.107,12.107,0,0,1,3.5-.584v-.477a1.124,1.124,0,0,0-1.272-1.27,1.341,1.341,0,0,0-1.483,1.27l-2.277-.264a2.514,2.514,0,0,1,1.323-2.066,5.383,5.383,0,0,1,2.6-.637,5.12,5.12,0,0,1,1.642.213,2.389,2.389,0,0,1,1.219.583,2.864,2.864,0,0,1,.582.9,5.744,5.744,0,0,1,.159,1.641v3.921a5.682,5.682,0,0,0,.16,1.643m-11.02,0h-2.439v-8.741h2.332v1.641c.318-1.219.953-1.8,1.8-1.8h.477V123.8a2.588,2.588,0,0,0-1.217.264,1.92,1.92,0,0,0-.69.848,4.939,4.939,0,0,0-.264,1.694Zm-9.484-5.4H112.1c-.105-1.219-.582-1.8-1.483-1.8-.954,0-1.43.582-1.536,1.8m5.456,1.484h-5.456v.369a1.746,1.746,0,0,0,.477,1.431,1.522,1.522,0,0,0,1.112.477,1.43,1.43,0,0,0,1.536-1.376l2.279.211a3.79,3.79,0,0,1-3.868,3.019,4,4,0,0,1-2.173-.53,4.606,4.606,0,0,1-1.483-1.536,5.018,5.018,0,0,1-.583-2.437,4.907,4.907,0,0,1,1.167-3.337,3.957,3.957,0,0,1,3.019-1.273,3.847,3.847,0,0,1,2.809,1.167,5.23,5.23,0,0,1,1.164,3.815m-9.747,3.92H102.3v-4.874c0-.637-.053-1.006-.053-1.219a.869.869,0,0,0-.369-.583.852.852,0,0,0-.637-.213c-.9,0-1.323.637-1.323,2.015v4.874H97.422v-8.741h2.332V122.9a2.894,2.894,0,0,1,1.113-1.325,2.446,2.446,0,0,1,1.218-.319,2.608,2.608,0,0,1,1.96.69c.53.423.743,1.323.743,2.6ZM95.3,121.412v8.741H92.972V128.67a2.469,2.469,0,0,1-2.489,1.694A2.623,2.623,0,0,1,89,129.993a2.008,2.008,0,0,1-.742-1.007,5.53,5.53,0,0,1-.264-1.852v-5.722h2.49v5.722c0,.793.316,1.164.953,1.164a1.108,1.108,0,0,0,.794-.265,1.223,1.223,0,0,0,.477-.583,5.107,5.107,0,0,0,.107-1.112v-4.926Zm-8.054-.743H81.9v2.65h4.238v2.224H81.9v4.61H79.092V118.338H87.25Z" transform="translate(-17.161 -105.349)"/><path class="cls-11" d="M229.56,147.7l-1.585,2.258,5.859-1.777,1.874-.336a2.641,2.641,0,0,0,1.3-1.394l1.1-.864c1.1-2.593-4.849.577-8.548,2.113" transform="translate(-17.161 -105.349)"/><path class="cls-12" d="M229.455,147.732l-1.614,2.319,5.967-1.827,1.907-.344a2.7,2.7,0,0,0,1.32-1.431l1.124-.888C239.284,142.9,233.22,146.153,229.455,147.732Z" transform="translate(-17.161 -105.349)"/><path class="cls-11" d="M250.836,121.91c.239,7.539-2.017,13.64-6.82,18.3-3.6,7.972,1.68,2.5,2.5,3.7,8.692-4.179,9.845-12.344,4.322-22" transform="translate(-17.161 -105.349)"/><path class="cls-12" d="M250.858,121.7c.242,7.627-2.036,13.8-6.884,18.51-3.635,8.064,1.7,2.525,2.522,3.741C255.269,139.722,256.432,131.465,250.858,121.7Z" transform="translate(-17.161 -105.349)"/><path class="cls-11" d="M217.458,151.253l-9.125-7.492.816-5.859,3.555-3.313,3.074-3.651,6.915-1.489,6.483.577,5.138-2.065,3.94-2.594,3.938-3.074,6.339-.719c-4.467-1.2-7.781-.048-8.405,6.242-.576,6.293-9.558,3.988-18.25,6.917s-9.317,8.74-4.418,16.52" transform="translate(-17.161 -105.349)"/><path class="cls-12" d="M217.479,151.5l-9.2-7.567.824-5.918,3.584-3.346,3.1-3.686,6.973-1.5,6.54.583,5.182-2.085,3.971-2.62,3.972-3.1,6.394-.729c-4.5-1.212-7.848-.047-8.476,6.307-.582,6.353-9.638,4.025-18.4,6.985S212.538,143.643,217.479,151.5Z" transform="translate(-17.161 -105.349)"/><path class="cls-13" d="M220.772,153.318l.913.72a19.191,19.191,0,0,1,11.813-5.426,5.216,5.216,0,0,0,4.563-2.738,1.727,1.727,0,0,1,.241-.528c.575-.961,1.68-1.441,3.552-1.68a2.055,2.055,0,0,0,.817-.289,4.118,4.118,0,0,0,1.824-2.785,4.6,4.6,0,0,1,1.25-2.305,4.377,4.377,0,0,0-1.681,1.921,1.433,1.433,0,0,0-.191.864,2.527,2.527,0,0,1-1.683,2.113,1.575,1.575,0,0,1-.816.192,4.5,4.5,0,0,0-3.6,1.68,5.28,5.28,0,0,0-.431.674c-.913,1.872-2.785,2.256-4.756,2.4-4.849.672-8.451,2.835-11.813,5.187" transform="translate(-17.161 -105.349)"/><path class="cls-13" d="M210.014,146.114l-1.105-.816a20.037,20.037,0,0,0,6.82,8.212c3.169,2.21,6.387,2.979,8.6,6.58-1.538-3.937-4.9-4.659-7.972-6.82a18.169,18.169,0,0,1-6.34-7.156" transform="translate(-17.161 -105.349)"/><path class="cls-14" d="M209.793,145.838,208.665,145a20.491,20.491,0,0,0,6.966,8.4c3.238,2.261,6.524,3.047,8.782,6.732-1.571-4.029-5-4.767-8.145-6.978A18.58,18.58,0,0,1,209.793,145.838Z" transform="translate(-17.161 -105.349)"/><path class="cls-15" d="M222.981,151.878a20.3,20.3,0,0,0,1.441-6.532l.192-3.5c.144-2.546,2.641-2.643,3.7-.721-.432-1.969-2.834-2.69-3.8-.769-.575,1.152-.431,3.41-.575,4.707-.1,2.354-.528,5.859-1.681,7.252Z" transform="translate(-17.161 -105.349)"/><path class="cls-16" d="M222.555,152.454a20.092,20.092,0,0,0,1.647-6.9l.219-3.7c.165-2.69,3.019-2.791,4.226-.762-.493-2.08-3.238-2.842-4.336-.811-.658,1.218-.494,3.6-.658,4.972-.11,2.488-.6,6.192-1.921,7.665Z" transform="translate(-17.161 -105.349)"/><path class="cls-17" d="M222.6,154.087a11.392,11.392,0,0,1,8.356-2.641,7.6,7.6,0,0,0,7.061-4.371c.816-2.738,1.824-4.035,4.56-2.546a3.01,3.01,0,0,0,3.027.193,3.77,3.77,0,0,1-2.93.576c-2.016-.336-3.218,0-4.37,1.969a9.676,9.676,0,0,1-8.309,5.09c-3.169.144-5.282,1.01-6.676,2.4Z" transform="translate(-17.161 -105.349)"/><path class="cls-18" d="M222.455,154.2a11.412,11.412,0,0,1,8.43-2.7,7.65,7.65,0,0,0,7.121-4.459c.823-2.792,1.842-4.115,4.6-2.595a3.007,3.007,0,0,0,3.052.2,3.768,3.768,0,0,1-2.956.588c-2.034-.343-3.246,0-4.409,2.009a9.751,9.751,0,0,1-8.38,5.2c-3.2.146-5.33,1.027-6.734,2.449Z" transform="translate(-17.161 -105.349)"/><path class="cls-13" d="M208.477,143.713c.24-3.362.528-6.579,4.227-9.125a9.426,9.426,0,0,0,2.5-2.113c1.632-2.544,4.61-3.074,7.492-3.024,6.772.239,12.39-.817,15.608-4.083,2.738-3.506,6.915-4.562,11.863-4.178-4.42-.914-8.644-.433-12.295,3.841-3.794,2.929-9.27,3.89-15.416,3.939-2.69.048-6.195.481-7.3,2.4a5.389,5.389,0,0,1-2.546,2.738c-3.074,1.73-4.418,4.707-4.274,8.933Z" transform="translate(-17.161 -105.349)"/><path class="cls-14" d="M208.385,144.308c.241-3.463.53-6.778,4.237-9.4a9.518,9.518,0,0,0,2.5-2.177c1.638-2.622,4.622-3.165,7.511-3.116,6.79.248,12.424-.841,15.649-4.2,2.745-3.612,6.935-4.7,11.9-4.3-4.431-.94-8.668-.446-12.328,3.957-3.8,3.017-9.293,4.006-15.457,4.055-2.7.05-6.211.5-7.318,2.474a5.5,5.5,0,0,1-2.553,2.819c-3.081,1.781-4.429,4.848-4.284,9.2Z" transform="translate(-17.161 -105.349)"/><path class="cls-13" d="M250.836,121.91c.336,1.872,1.872,3.169,2.5,4.946,1.153,3.362.961,9.125-.96,12.2a8.5,8.5,0,0,1-3.649,3.073,7.267,7.267,0,0,0-3.122,1.825l.913-.047a6.2,6.2,0,0,1,2.833-1.681,8.74,8.74,0,0,0,3.649-3.41c1.922-3.026,1.825-8.838.625-12.151-.672-1.969-2.161-3.074-2.785-4.754" transform="translate(-17.161 -105.349)"/><path class="cls-14" d="M250.8,121.881c.348,1.884,1.94,3.19,2.588,4.977,1.193,3.382.994,9.181-1,12.273a8.747,8.747,0,0,1-3.783,3.093,7.594,7.594,0,0,0-3.234,1.835l.947-.047a6.451,6.451,0,0,1,2.935-1.691,8.99,8.99,0,0,0,3.783-3.431c1.99-3.044,1.889-8.891.645-12.225C252.985,124.683,251.444,123.571,250.8,121.881Z" transform="translate(-17.161 -105.349)"/><path class="cls-8" d="M263.046,143.1v.053a30.53,30.53,0,0,1-1,8.013,29.651,29.651,0,0,1-3.149,7.421,30.819,30.819,0,0,1-26.771,15.491,32.676,32.676,0,0,1-3.734-.2.042.042,0,0,1-.033-.006c-.136-.01-.277-.024-.41-.044h-.006a.1.1,0,0,1-.033-.008c-.387-.044-.767-.1-1.149-.169h0l-3.84-.917c-.2-.058-.4-.125-.594-.2l-3.936-1.659-.618-.322c-.062-.03-.125-.063-.194-.1-.313-.174-.626-.348-.939-.531a31,31,0,0,1-15.488-26.771,31,31,0,0,1,15.488-26.824A30.954,30.954,0,0,1,263.046,143.1Z" transform="translate(-17.161 -105.349)"/><path class="cls-19" d="M212.051,167.259a26.5,26.5,0,0,0,9.482,5.746A29.468,29.468,0,0,0,234,174.2a36.69,36.69,0,0,0,5.209-.8" transform="translate(-17.161 -105.349)"/><path class="cls-7" d="M263.206,143.1v.053a30.53,30.53,0,0,1-1,8.013,29.651,29.651,0,0,1-3.149,7.421,30.819,30.819,0,0,1-26.771,15.491,32.676,32.676,0,0,1-3.734-.2.045.045,0,0,1-.034-.006c-.135-.01-.276-.024-.411-.044h0a.1.1,0,0,1-.033-.008c-.387-.044-.767-.1-1.149-.169h0l-3.84-.917c-.2-.058-.4-.125-.593-.2l-3.938-1.659-.617-.322c-.062-.03-.125-.063-.194-.1-.313-.174-.626-.348-.939-.531a31,31,0,0,1-15.488-26.771A31,31,0,0,1,216.8,116.324,30.954,30.954,0,0,1,263.206,143.1" transform="translate(-17.161 -105.349)"/><path class="cls-8" d="M263.206,143.1v.053a30.53,30.53,0,0,1-1,8.013,29.651,29.651,0,0,1-3.149,7.421,30.819,30.819,0,0,1-26.771,15.491,32.676,32.676,0,0,1-3.734-.2.045.045,0,0,1-.034-.006c-.135-.01-.276-.024-.411-.044h0a.1.1,0,0,1-.033-.008c-.387-.044-.767-.1-1.149-.169h0l-3.84-.917c-.2-.058-.4-.125-.593-.2l-3.938-1.659-.617-.322c-.062-.03-.125-.063-.194-.1-.313-.174-.626-.348-.939-.531a31,31,0,0,1-15.488-26.771A31,31,0,0,1,216.8,116.324,30.954,30.954,0,0,1,263.206,143.1Z" transform="translate(-17.161 -105.349)"/><path class="cls-20" d="M241.733,166.072h0m-3.866-.918c-.2-.058-.4-.125-.6-.2m-8.6,8.655c1.482-9.211,4.135-16.552,8.5-20.947l.091-.078a32.676,32.676,0,0,0,9.386-10.5c0-.009.009-.014.014-.025l1.531-.892.014-.01.107-.063c4.177-1.883,6.558-5.65,5.683-12.8a10.918,10.918,0,0,0-1.506-4.782c-.924-1.5-1.846-2.076-2.331-4.008a20.587,20.587,0,0,0-4.469-.484,12.274,12.274,0,0,0-3.4.581,12.532,12.532,0,0,0-5.245,3.718c-3.837,2.994-9.521,4.106-16.37,3.96a6.346,6.346,0,0,0-.972.05c-3.205.434-5.2,1.207-5.683,2.461a5.241,5.241,0,0,1-1.992,2.367c-4.142,2.086-5.153,5.452-4.71,9.795v.014c.009.069.009.13.019.2v.009a1.337,1.337,0,0,0,.015.154c0,.006,0,.006,0,.011l0,0,0,.005c.039.362.091.734.155,1.11a23.5,23.5,0,0,0,2.331,4.058c.438,3.911,2.817,6.809,5.294,9.707,1.9,2.153,3.27,5.651,2.649,12.959.066.033.13.067.193.1m25.372-3.99c-.135-.009-.276-.025-.413-.044h0" transform="translate(-17.161 -105.349)"/><path class="cls-11" d="M241.31,148.41a24.527,24.527,0,0,0-4.188,3.507,30.176,30.176,0,0,0-6.45,10.949,53.356,53.356,0,0,0-2.464,10.647c-.383-.044-.763-.1-1.143-.169h0a9.848,9.848,0,0,1-.616-3.962c.241-1.681,2.305-11.622,3.459-14.216,1.195-2.635,7.607-4.5,11.406-6.756" transform="translate(-17.161 -105.349)"/><path class="cls-12" d="M227.016,173.4h0a9.891,9.891,0,0,1-.618-3.978c.241-1.687,2.317-11.667,3.477-14.27,1.2-2.646,7.648-4.522,11.468-6.783a24.789,24.789,0,0,0-4.21,3.519,30.322,30.322,0,0,0-6.486,10.992,53.583,53.583,0,0,0-2.477,10.689" transform="translate(-17.161 -105.349)"/><path class="cls-11" d="M228.8,146.379l-1.585,2.258,5.859-1.777,1.874-.336a2.64,2.64,0,0,0,1.3-1.394l1.105-.864c1.1-2.593-4.851.577-8.549,2.113" transform="translate(-17.161 -105.349)"/><path class="cls-12" d="M228.692,146.412l-1.613,2.319,5.967-1.825,1.907-.346a2.7,2.7,0,0,0,1.32-1.431l1.124-.888C238.521,141.575,232.458,144.833,228.692,146.412Z" transform="translate(-17.161 -105.349)"/><path class="cls-11" d="M250.073,120.59c.239,7.539-2.016,13.64-6.82,18.3-3.6,7.973,1.681,2.5,2.5,3.7,8.694-4.179,9.846-12.343,4.323-22" transform="translate(-17.161 -105.349)"/><path class="cls-12" d="M250.1,120.38c.243,7.627-2.036,13.8-6.883,18.51-3.635,8.064,1.7,2.525,2.521,3.741C254.506,138.4,255.669,130.145,250.1,120.38Z" transform="translate(-17.161 -105.349)"/><path class="cls-11" d="M216.7,149.933l-9.125-7.492.816-5.859,3.554-3.313,3.074-3.651,6.915-1.489,6.484.577,5.138-2.065,3.938-2.594,3.939-3.074,6.338-.719c-4.466-1.2-7.779-.048-8.4,6.242-.575,6.293-9.557,3.988-18.249,6.917s-9.317,8.74-4.418,16.52" transform="translate(-17.161 -105.349)"/><path class="cls-12" d="M216.716,150.182l-9.2-7.568.824-5.917,3.584-3.347,3.1-3.686,6.973-1.5,6.538.583,5.184-2.085,3.971-2.62,3.971-3.1,6.4-.728c-4.5-1.213-7.848-.048-8.476,6.306-.582,6.353-9.639,4.025-18.4,6.985S211.776,142.324,216.716,150.182Z" transform="translate(-17.161 -105.349)"/><path class="cls-13" d="M220.009,152l.914.722a19.182,19.182,0,0,1,11.813-5.428,5.213,5.213,0,0,0,4.562-2.738,1.753,1.753,0,0,1,.242-.528c.575-.961,1.68-1.441,3.552-1.68a2.051,2.051,0,0,0,.816-.289,4.123,4.123,0,0,0,1.825-2.785,4.6,4.6,0,0,1,1.249-2.3,4.375,4.375,0,0,0-1.68,1.921,1.427,1.427,0,0,0-.192.864,2.524,2.524,0,0,1-1.682,2.113,1.575,1.575,0,0,1-.816.192,4.493,4.493,0,0,0-3.6,1.68,5.069,5.069,0,0,0-.431.674c-.913,1.872-2.787,2.256-4.756,2.4-4.849.672-8.453,2.835-11.814,5.187" transform="translate(-17.161 -105.349)"/><path class="cls-21" d="M219.848,152.091l.942.752a19.688,19.688,0,0,1,12.179-5.655,5.374,5.374,0,0,0,4.705-2.853,1.837,1.837,0,0,1,.248-.549c.593-1,1.732-1.5,3.664-1.752a2.1,2.1,0,0,0,.841-.3,4.314,4.314,0,0,0,1.882-2.9,4.792,4.792,0,0,1,1.286-2.4,4.561,4.561,0,0,0-1.733,2,1.506,1.506,0,0,0-.2.9,2.619,2.619,0,0,1-1.733,2.2,1.612,1.612,0,0,1-.841.2,4.608,4.608,0,0,0-3.714,1.751,5.168,5.168,0,0,0-.445.7c-.942,1.951-2.872,2.352-4.9,2.5C227.029,147.388,223.315,149.64,219.848,152.091Z" transform="translate(-17.161 -105.349)"/><path class="cls-22" d="M223.238,172.432c-.2-.058-.394-.125-.591-.2,1.507-5.115,1.8-9.744.885-13.518a.378.378,0,0,0-.02-.069c0-.009,0-.014,0-.018a12.619,12.619,0,0,0-4.457-7.161l-2.257-1.68c-.111-.086-.226-.174-.342-.255-.547-.409-1.108-.8-1.68-1.186-.011-.005-.014-.011-.025-.014-2.5-1.7-5.143-3.319-7.02-5.7a.291.291,0,0,1-.053-.063l0,0c-.02-.025-.039-.049-.058-.077l0-.006a.3.3,0,0,0-.033-.042.258.258,0,0,0,.037.037.24.24,0,0,0,.052.058l.006,0a.235.235,0,0,0,.063.067,26.883,26.883,0,0,0,5.594,4.557c.005,0,.005.006.01.006.859.552,1.753,1.08,2.675,1.624h0a.342.342,0,0,1,.058.033,21.619,21.619,0,0,1,4.082,2.738c.072.062.139.128.206.192.264.253.519.508.758.772,4.577,5,4.718,11.882,2.119,19.9" transform="translate(-17.161 -105.349)"/><path class="cls-23" d="M223.265,172.549c-.2-.06-.41-.128-.614-.2,1.568-5.261,1.867-10.023.919-13.9a.491.491,0,0,0-.02-.071.024.024,0,0,0-.005-.019,12.955,12.955,0,0,0-4.631-7.363l-2.346-1.73c-.116-.088-.234-.178-.355-.262-.568-.419-1.152-.82-1.745-1.22-.011,0-.016-.01-.025-.014-2.6-1.743-5.345-3.413-7.3-5.864a.33.33,0,0,1-.054-.063l-.006-.006a.9.9,0,0,1-.059-.079l-.006,0a.169.169,0,0,0-.035-.044c.011.014.027.024.041.04a.186.186,0,0,0,.054.058l.005.006a.3.3,0,0,0,.066.068,27.905,27.905,0,0,0,5.813,4.688s0,.005.011.005c.892.568,1.821,1.112,2.78,1.67h0a.261.261,0,0,1,.06.035,22.391,22.391,0,0,1,4.242,2.815c.076.063.144.134.215.2.274.262.538.524.788.8C225.82,157.222,225.964,164.3,223.265,172.549Z" transform="translate(-17.161 -105.349)"/><path class="cls-13" d="M209.252,144.795l-1.105-.817a20.037,20.037,0,0,0,6.82,8.212c3.169,2.21,6.387,2.979,8.6,6.581-1.538-3.94-4.9-4.66-7.973-6.82a18.172,18.172,0,0,1-6.339-7.156" transform="translate(-17.161 -105.349)"/><path class="cls-21" d="M209.028,144.516l-1.127-.836a20.479,20.479,0,0,0,6.965,8.405c3.24,2.261,6.528,3.048,8.784,6.734-1.569-4.031-5-4.768-8.145-6.98A18.581,18.581,0,0,1,209.028,144.516Z" transform="translate(-17.161 -105.349)"/><path class="cls-17" d="M218.113,170.261c.4-4.215.231-8.261-1.56-11.444-2.066-3.7-5.523-5.764-6.148-10.374,1.441,4.082,4.179,6.051,6.292,9.558,1.925,3.15,2.314,7.592,2.03,12.582Z" transform="translate(-17.161 -105.349)"/><path class="cls-22" d="M218.113,170.261c.4-4.215.231-8.261-1.56-11.444-2.066-3.7-5.523-5.764-6.148-10.374,1.441,4.082,4.179,6.051,6.292,9.558,1.925,3.15,2.314,7.592,2.03,12.582" transform="translate(-17.161 -105.349)"/><path class="cls-15" d="M222.218,150.558a20.3,20.3,0,0,0,1.442-6.532l.191-3.507c.145-2.544,2.641-2.641,3.7-.719-.433-1.969-2.835-2.69-3.8-.769-.576,1.152-.432,3.41-.576,4.707-.1,2.354-.528,5.859-1.68,7.252Z" transform="translate(-17.161 -105.349)"/><path class="cls-24" d="M221.918,150.933a20.07,20.07,0,0,0,1.584-6.774l.211-3.635c.156-2.64,2.9-2.74,4.063-.748-.475-2.041-3.115-2.789-4.169-.8-.633,1.2-.475,3.536-.633,4.882-.106,2.441-.581,6.076-1.848,7.521Z" transform="translate(-17.161 -105.349)"/><path class="cls-17" d="M221.834,152.767a11.4,11.4,0,0,1,8.356-2.641,7.6,7.6,0,0,0,7.061-4.371c.817-2.738,1.825-4.034,4.563-2.546a3.007,3.007,0,0,0,3.024.194,3.772,3.772,0,0,1-2.929.575c-2.017-.336-3.219,0-4.371,1.969a9.676,9.676,0,0,1-8.309,5.09c-3.168.145-5.282,1.01-6.673,2.4Z" transform="translate(-17.161 -105.349)"/><path class="cls-22" d="M221.834,152.767a11.4,11.4,0,0,1,8.356-2.641,7.6,7.6,0,0,0,7.061-4.371c.817-2.738,1.825-4.034,4.563-2.546a3.007,3.007,0,0,0,3.024.194,3.772,3.772,0,0,1-2.929.575c-2.017-.336-3.219,0-4.371,1.969a9.676,9.676,0,0,1-8.309,5.09c-3.168.145-5.282,1.01-6.673,2.4Z" transform="translate(-17.161 -105.349)"/><path class="cls-13" d="M207.715,142.393c.239-3.362.528-6.578,4.226-9.124a9.415,9.415,0,0,0,2.5-2.114c1.633-2.544,4.61-3.074,7.492-3.024,6.773.239,12.391-.817,15.609-4.082,2.738-3.507,6.915-4.563,11.861-4.179-4.418-.913-8.643-.433-12.294,3.841-3.793,2.929-9.269,3.89-15.415,3.939-2.69.048-6.195.481-7.3,2.4a5.389,5.389,0,0,1-2.546,2.738c-3.074,1.73-4.418,4.707-4.274,8.933Z" transform="translate(-17.161 -105.349)"/><path class="cls-14" d="M207.623,142.988c.241-3.463.529-6.778,4.236-9.4a9.518,9.518,0,0,0,2.5-2.177c1.638-2.621,4.623-3.167,7.512-3.117,6.79.248,12.424-.841,15.649-4.2,2.745-3.61,6.934-4.7,11.894-4.3-4.43-.939-8.667-.445-12.327,3.957-3.8,3.018-9.294,4.007-15.457,4.056-2.7.049-6.211.495-7.318,2.474a5.5,5.5,0,0,1-2.553,2.819c-3.081,1.78-4.429,4.847-4.285,9.2Z" transform="translate(-17.161 -105.349)"/><path class="cls-13" d="M250.073,120.59c.336,1.872,1.874,3.169,2.5,4.946,1.152,3.362.961,9.125-.961,12.2a8.505,8.505,0,0,1-3.649,3.074,7.262,7.262,0,0,0-3.121,1.824l.911-.047a6.207,6.207,0,0,1,2.835-1.681,8.752,8.752,0,0,0,3.649-3.41c1.921-3.026,1.824-8.838.624-12.151-.672-1.969-2.16-3.074-2.785-4.754" transform="translate(-17.161 -105.349)"/><path class="cls-21" d="M250.034,120.56c.348,1.885,1.94,3.19,2.588,4.978,1.195,3.382,1,9.181-1,12.274a8.749,8.749,0,0,1-3.783,3.092,7.627,7.627,0,0,0-3.236,1.837l.947-.048A6.467,6.467,0,0,1,248.491,141a8.979,8.979,0,0,0,3.783-3.431c1.991-3.044,1.891-8.891.647-12.226C252.224,123.363,250.681,122.251,250.034,120.56Z" transform="translate(-17.161 -105.349)"/><path class="cls-13" d="M245.416,143.737a46.107,46.107,0,0,1-5.763,6.868c-.8.777-1.652,1.4-2.473,2.06-.029.025-.059.047-.092.077a10.84,10.84,0,0,0-2.238,2.328c-3.832,5.9-5.312,12.146-6.195,18.5-.134-.01-.273-.024-.409-.044a66.652,66.652,0,0,1,2.427-10.657,40.607,40.607,0,0,1,3.552-7.937,16.909,16.909,0,0,1,2.9-3.013c.548-.45,1.12-.883,1.716-1.31a28.126,28.126,0,0,0,2.472-2.195s0,0,.011,0a50.679,50.679,0,0,0,4.1-4.668" transform="translate(-17.161 -105.349)"/><path class="cls-21" d="M245.494,143.68a46.356,46.356,0,0,1-5.826,6.9c-.81.781-1.67,1.4-2.5,2.071-.03.025-.06.048-.093.078a10.932,10.932,0,0,0-2.263,2.34c-3.872,5.929-5.368,12.211-6.26,18.593-.137-.011-.278-.025-.414-.044a66.98,66.98,0,0,1,2.451-10.712,40.848,40.848,0,0,1,3.593-7.982,17.03,17.03,0,0,1,2.926-3.026c.555-.454,1.132-.889,1.734-1.318a28.5,28.5,0,0,0,2.5-2.206c.005,0,.005-.006.01-.006A50.874,50.874,0,0,0,245.494,143.68Z" transform="translate(-17.161 -105.349)"/><path class="cls-22" d="M207.715,142.777c.239-3.409.528-6.628,4.226-9.124a9.628,9.628,0,0,0,2.5-2.161c.961-2.113,4.61-2.3,7.059-2.258,6.725.192,12.824-1.536,16.042-4.8,2.738-3.553,6.626-4.946,11.622-4.561-4.466-.913-8.4-.1-12.055,4.177-3.793,2.93-9.269,3.938-15.415,3.987-2.69.048-6.195.432-7.3,2.353a5.3,5.3,0,0,1-2.546,2.785c-3.074,1.681-4.418,4.707-4.274,8.933Z" transform="translate(-17.161 -105.349)"/><path class="cls-23" d="M207.622,143.38c.241-3.512.529-6.825,4.237-9.4a9.757,9.757,0,0,0,2.5-2.226c.965-2.176,4.624-2.375,7.079-2.326,6.742.2,12.857-1.582,16.084-4.946,2.745-3.66,6.645-5.094,11.653-4.7-4.478-.941-8.426-.1-12.086,4.3-3.8,3.018-9.294,4.058-15.458,4.107-2.7.049-6.212.445-7.319,2.423a5.427,5.427,0,0,1-2.551,2.87c-3.083,1.731-4.431,4.847-4.287,9.2Z" transform="translate(-17.161 -105.349)"/><path class="cls-8" d="M263.046,143.335v.053a30.556,30.556,0,0,1-1,8.015,29.647,29.647,0,0,1-3.149,7.418,30.82,30.82,0,0,1-26.771,15.493,32.217,32.217,0,0,1-3.734-.2.041.041,0,0,1-.033,0c-.136-.011-.277-.025-.41-.044h-.006a.138.138,0,0,1-.033-.009c-.387-.044-.767-.1-1.149-.169h0l-3.84-.916c-.2-.059-.4-.127-.594-.2l-3.936-1.659-.618-.324c-.062-.028-.125-.062-.194-.1-.313-.172-.626-.347-.939-.53a31,31,0,0,1-15.488-26.771,31,31,0,0,1,15.488-26.822,30.953,30.953,0,0,1,46.411,26.769Zm0-.241v.053a30.53,30.53,0,0,1-1,8.013,29.629,29.629,0,0,1-3.149,7.42,30.82,30.82,0,0,1-26.771,15.493,32.217,32.217,0,0,1-3.734-.205.041.041,0,0,1-.033,0c-.136-.011-.277-.025-.41-.044h-.006a.091.091,0,0,1-.033-.011c-.387-.042-.767-.1-1.149-.169h0l-3.84-.914c-.2-.059-.4-.127-.594-.2l-3.936-1.66-.618-.323c-.062-.028-.125-.062-.194-.1-.313-.173-.626-.347-.939-.53a31,31,0,0,1-15.488-26.771,31.007,31.007,0,0,1,15.488-26.824,30.955,30.955,0,0,1,46.411,26.771Z" transform="translate(-17.161 -105.349)"/></svg>