<svg id="Layer_1" data-name="Layer 1" xmlns="http://www.w3.org/2000/svg" xmlns:xlink="http://www.w3.org/1999/xlink" viewBox="0 0 220.85 140.57"><defs><style>.cls-1{fill:none;}.cls-2{clip-path:url(#clip-path);}.cls-3{fill:#2b2b2b;}.cls-4{fill:#d9b573;}</style><clipPath id="clip-path" transform="translate(-33.008 -73.495)"><rect class="cls-1" x="33.007" y="73.495" width="220.85" height="140.569"/></clipPath></defs><g class="cls-2"><path class="cls-3" d="M125.843,157.213c5.536-1.36,6.7,3.67,6.725,7.9.026,4.276.262,9.636-4,10.652-5.851,1.391-6.451-4.042-6.722-7.871-.3-4.183-.171-9.65,4-10.677m-1.752-3.57c-7.668,1.393-10.144,7.715-9.061,15.779,1,7.41,5.628,11.525,15.394,9.948,12.472-2.016,10.889-20,4.907-24.047-2.643-1.785-7.322-2.393-11.24-1.68" transform="translate(-33.008 -73.495)"/><path class="cls-3" d="M38.405,184.773c2.254.8,93.616.362,104.256.362L246,185.073c.643-.148.367-.072.731-.3l-.042-.832L39.6,183.805c-1.8-.267-.421-.015-.986-.595-1.808-.874-3.51-3.595-5.607-4.331.232,1.543,1.5,2.176,2.562,3.127a17.2,17.2,0,0,1,2.835,2.767" transform="translate(-33.008 -73.495)"/><path class="cls-3" d="M147.134,175.8l-.059-10.35c1.473-.782,4.106-1.433,6-.266,2.651,1.63,2.432,9.405-.081,11.135-1.936,1.333-4.021.793-5.862-.519m-5.488,3.525c4.227.071,4.767.506,5.657-.733,2.489,1.5,11.688,2.636,11.924-7.382.276-11.78-8.143-8.53-12.148-8.311l-.009-7.224-5.378,0Z" transform="translate(-33.008 -73.495)"/><path class="cls-3" d="M241.085,170.925c0,2.984-.072,6.417-4.029,6.15-3.2-.216-3.324-3.586-3.322-6.429,0-2.861.289-6.076,3.918-5.962,3.207.1,3.433,3.258,3.433,6.241m-6.433-8.336c-5.932,1.305-6.981,6.148-6.092,10.994s5.514,6.908,11.678,5.768c5.627-1.038,6.884-5.716,5.991-11.115-.815-4.934-5.6-6.961-11.577-5.647" transform="translate(-33.008 -73.495)"/><path class="cls-3" d="M173.764,169.4l-7.856.09c-1.345-6.5,8.739-6.694,7.856-.09m2.888,6.259c-2.215.648-3.886,2.025-7.269,1.465-2.221-.366-3.585-3-3.466-5.315l11.4-.02c.856-5.191-1.119-8.765-6.248-9.4-5.923-.729-9.4,1.5-10.355,5.784-1.955,8.763,3.064,12.236,11.61,11.316,3.436-.372,3.863-.624,4.333-3.834" transform="translate(-33.008 -73.495)"/><path class="cls-3" d="M194.38,175.907a4.943,4.943,0,0,0,.749,2.606c1.322,1.345,13.466,2.672,14.933-2.9,2.078-7.9-7.061-5.81-10.729-8.562-.335-4.412,9.247-1.826,10.016-1.266.254-2.121-.815-3.024-3.011-3.369a29.211,29.211,0,0,0-7.309-.033c-1.989.284-3.806.939-4.632,2.474a3.982,3.982,0,0,0,1.041,5.084c3.07,2.035,9.733.936,9.4,4.844-.4,4.813-9.785,1.263-10.462,1.123" transform="translate(-33.008 -73.495)"/><path class="cls-3" d="M227.125,175.981c-5.829,1.471-9.411,2.7-9.755-4.5-.366-7.657,2.711-7.314,9.614-6.035-.08-2.89-.685-2.59-3.645-2.956-6.983-.862-11.65.909-11.523,8.428.071,4.218,1.341,7.055,5.05,8.065a22.361,22.361,0,0,0,6.895.307c3.206-.268,3.434-.333,3.364-3.313" transform="translate(-33.008 -73.495)"/></g><polygon class="cls-3" points="146.153 105.907 151.271 105.931 151.384 82.216 146.184 82.17 146.153 105.907"/><g class="cls-2"><path class="cls-3" d="M186.935,179.386l5.161.048c.547-2.211.287-14.187.131-17.07l-5.272.006Z" transform="translate(-33.008 -73.495)"/><path class="cls-3" d="M119.472,144.342c.9.392,2.818-.924,5.261-.293.48,3.473-7.843,4.659-8.375.234-.283-2.349,3.42-4.85,5.043-5.415,1.918-.668.921-.028,2.382.48.736-.613,1.1-1.005.826-2.1-4.034-1.16-13.673,6.663-6.927,10.059,2.865,1.443,7.395-.017,8.5-1.951,1.978-3.477-5.386-2.516-6.706-1.018" transform="translate(-33.008 -73.495)"/><path class="cls-3" d="M188.114,155.909c-3.4,1.587-1.033,6.527,2.952,4.9,3.245-1.322,1.185-6.836-2.952-4.9" transform="translate(-33.008 -73.495)"/><path class="cls-3" d="M157.446,155.293c1.013-1.839-1.084-4.817-1.614-6.937-.977-3.9,2.049-5.446,4.36-3.414l-.358,1.454-2.761-.4c.143,2.548,4.331,1.405,4.178-.8-.171-2.455-3.56-2.128-5.262-1.1-2.18,1.322-1.305,3.5-.536,5.724.484,1.4-.072,5.24,1.993,5.476" transform="translate(-33.008 -73.495)"/><path class="cls-3" d="M252.827,149.05c-1.758,4.246-8.861,2-7.258-2.354,1.449-3.939,9.118-2.148,7.258,2.354m-5.1-5.159c-5.531,1.537-3.423,9.528,2.794,8.038,5.763-1.381,3.554-9.8-2.794-8.038" transform="translate(-33.008 -73.495)"/><path class="cls-3" d="M167.026,142.4c.913.72,1.642.92,2.129,1.938a3.116,3.116,0,0,1-4.422,1.883c-.021-2.258,2.228-.057,2.42-2.435-1.473-.92-3.4.333-3.777,1.449-1.314,3.88,5.855,2.781,6.529-.392a2.151,2.151,0,0,0-1.705-2.6Z" transform="translate(-33.008 -73.495)"/><path class="cls-3" d="M129.627,147.644c2.739.2,5.389-2.967,8.364-2.719,1.435.12,1.724,1.14,2.681-.029-.594-1.554-4.027-.757-5.446-.276-1.609.545-3.431,1.807-4.866,1.91-.067-.695.108-1.579-.24-2.052-1.014-1.377-3.324,1.055-.493,3.166" transform="translate(-33.008 -73.495)"/><path class="cls-3" d="M149.469,145.477c1.4.723,1.533,3.127,3.5,1.356-.964-1.649.008.582-2.884-2.356-2.639-.044-2.38,2.308-4.088,2.56a2.2,2.2,0,0,1-2.148-.924c-.489-1.187.56-2.045-1.43-1.921-.977,1.57.659,3.335,2.4,3.585,2.794.4,3.348-1.307,4.642-2.3" transform="translate(-33.008 -73.495)"/><path class="cls-3" d="M249.419,146.478c.832,0,.548.162.843.355-.122.381.092.705-.871.745-1.194.046-.8-.136-1.034-.745.706-.421-.976-.357,1.062-.355m-1.532,3.324c.989-.475-.022-.6.928-1.574,1.962.543.453,1.244,2.481,1.622l-.8-1.648c.69-.754.773-.565.517-1.982a6.2,6.2,0,0,0-3.224-.285c-.313,1.042-.459,3.013.1,3.867" transform="translate(-33.008 -73.495)"/><path class="cls-4" d="M45.82,200.105c-1.413,0-.337.1-.766-.383a28.229,28.229,0,0,1,2.8-5.109c.6-.988.722-1.375,2.251-1.6,1.7-.243,2.809-.182,3.768.69,1.408,1.721-1.064,3.825-2.076,4.49a13.319,13.319,0,0,1-5.975,1.908m-3.2-5.888,1.951-.116-.6,1.178c-.644,1.388-6.935,11.881-4.918,12.779,1.648-.438,3-.916,3.416-2.085.23-.648.339-1.36.573-2.039,1.021-2.94,1.848-1.506,5.788-2.574,4.029-1.091,9.544-3.7,8.84-8.289-1.849-3.849-12.149-1.016-15.241.311-.192,1.31,0,.5.193.835" transform="translate(-33.008 -73.495)"/><path class="cls-4" d="M153.215,207.667a15.061,15.061,0,0,0,7-.024c1.982-.368,4.765-1.086,4.666-2.84-2.476-.168-5.178,1.246-8.993.891l-.681-.273c.072-2.118.727-5.083,3.234-5.334,3.147-.315,5.4.352,7.056-1.769-.248-1.069-5.521-.178-6.609-.108-.672-.151-.762-.059-.777-.425.926-2.056,1.279-3.878,4.342-3.967,2.868-.084,5.557.33,6.438-1.8-1.3-1.031-5.081-.364-6.944-.333-1.929.718-2.974-.346-5.592,1.415-.187,2.483,0,1.754-1.108,3.759a40.9,40.9,0,0,0-3.291,7.064c-.578,2.232-.141,2.8,1.258,3.74Z" transform="translate(-33.008 -73.495)"/><path class="cls-4" d="M193.413,205.607a3.26,3.26,0,0,1-.576-.674c-.193-.252-.094-.471-.09-.771.02-1.938,1.9-4.5,4.141-5.466,1.117-.479,2.361-.722,3.083.208C201.664,201.2,196.536,207.968,193.413,205.607Zm-3.289,1.149a7,7,0,0,0,1.426,1.214c2.756.529,2.942-.088,5.167-.675-.127.188-.109.223-.506.874-.444,1.432-3.013,4.955-1.5,5.895,2.551-.25,2.59-1.571,3.434-3.487l4.589-9.141a38.324,38.324,0,0,0,2.411-4.31c-.508-1.014-1.658-.113-2.485-.094-.962.024-.96-.62-2.735-.628-3.622-.02-10.791,3.991-9.8,10.35Z" transform="translate(-33.008 -73.495)"/><path class="cls-4" d="M226.8,206.411c-1.553-1.382.156-2.8,1.252-3.381a6.172,6.172,0,0,1,2.24-.773c1.378-.194,1.715-.153,2.344.624,1.657,1.87-3.508,4.275-5.836,3.53m.972-8.627c-.249.179-.85.374-.3,1.393,2.008-.136,5.058-2.225,6.834-.5.832.721,1.084,2.043-2.192,2.076-6.227.061-11.014,4.347-7.8,7.274,3.909.878,3.977-.177,6.9-.836l.249.86.327.233c1.677-.051,2.123-.57,2.524-1.868a14.7,14.7,0,0,1,1.307-2.726c.9-1.669,2.343-3.83,1.848-5.795-.527-.908-.321-1.024-1.145-1.234a10.945,10.945,0,0,0-8.555,1.123" transform="translate(-33.008 -73.495)"/><path class="cls-4" d="M206.049,199.03c.154,1.784-3.107,4.337-2.419,7.309.768,3.3,5.592,1.406,7.118.192.537.889.07.725.961,1.507a5.061,5.061,0,0,0,2.446-.812,10.3,10.3,0,0,1,1.73-5.378c.679-1.275,2.166-3.558,2.313-4.927l.118-.217c-3.953-.085-3.935,2.531-5.264,4.785-1.161,1.972-2.713,4.471-5.667,4.3-1.54-.961.046-3.142.786-4.515.591-1.095,1.949-3.118,1.945-4.316-2.4-1.289-3.59,1.537-3.725,1.715Z" transform="translate(-33.008 -73.495)"/><path class="cls-4" d="M127.25,208.015a3.32,3.32,0,0,0,3.236-2.6,14.5,14.5,0,0,1,1.984-3.477c1.03-1.415,4.916-5.363,6.854-3.048.712,2.536-4.57,6.7-2.858,9.172,3.064-.1,2.908-2.156,3.942-4.245,1.075-2.172,2.338-3.6,1.887-6.339-2.117-2.124-4.679-.5-6.781.317-.972.489.017-.028-1.292.681.405-1.176.6-.782.267-2.006-3.4-.175-3.716,2.481-4.994,4.765-.535.964-1.172,2.163-1.68,3.219-.519,1.071-1.452,2.558-.565,3.558" transform="translate(-33.008 -73.495)"/><path class="cls-4" d="M117.364,205.588c-.924-.776-.836-1.533-.274-3.011.714-1.885,2.932-4.682,5.457-4.541,1.023.057.942.157,1.285.61,3.094,2.58-4.616,9.9-6.468,6.942M115.424,208c3.532,1.077,6.715-1.095,8.518-2.6,1.979-1.644,4.21-4.434,2.965-7.922-5.3-4.824-17.233,6.389-11.483,10.519" transform="translate(-33.008 -73.495)"/><path class="cls-4" d="M70.558,201.761H68.285c.154-1.5,4.25-5.2,5.5-3.182.526,1.688-1.543,2.748-3.223,3.175ZM69,198.064c-.589.635-.885.614-1.5,1.378-2.36,1.881-4.813,6.341-1.379,8.581,4.471.856,8.931-1,10.081-3.838-1.08-.8-5.459,4.068-8.122,1.7-.783-.53-1.589-2.4.6-2.617a10.039,10.039,0,0,0,4.018-.795c2.164-.9,4.1-2.315,4.222-4.681-1.679-2.911-5.693-.638-7.918.275" transform="translate(-33.008 -73.495)"/><path class="cls-4" d="M183.479,201.719l-2.315.129c.022-1.577,2.433-3.447,3.666-3.7,1.252-.256,1.351-.072,1.83.451.066,1.883-1.329,2.689-3.181,3.121m-6.142,4.854c.149.672,1.182,1.235,1.517,1.391,1.29.606,3.937.44,6.232-.489,1.456-.589,3.942-1.813,3.679-3.564-1.513.37-5.875,4.291-7.916,1.852-.62-.626.315.329-.6-.615-.883-.915.05-1.767,1.391-1.883,3.464-.3,8.233-1.745,7.968-5.764-2.372-2.5-6.723-.14-8.5,1.172-2.111,1.557-4.6,4.186-3.77,7.9" transform="translate(-33.008 -73.495)"/><path class="cls-4" d="M96.07,208.245c2.981.1,4.649-.094,6.738-1.241,1.553-.852,3.512-1.916,3.145-4.13-1.15-1.594-3.3-1.437-5.3-2.33l-.635-.545c.149-1.119.784-1.408,1.928-1.77,1-.319,2.8-.646,3.371.36l.469.635c1.478-.182,2.6-.721,2.181-2.227-2.617-2.453-8.089.593-9.595,1.857-4.686,3.937,3.186,4.061,4.57,5.577-.327,1.232-1.57,1.828-3.324,1.962-2.562.194-2.31-.568-3.381-1.586-2.575.589-2.5,2.777-.167,3.438" transform="translate(-33.008 -73.495)"/><path class="cls-4" d="M165.78,206.057a4.705,4.705,0,0,1-.926.766c-.911.663-1.2,1.141-.915,1.217l.265.073c3.139-.278,5.3-2.83,7.015-4.231l.611.723c.421,1.3.6,2.822,1.833,3.418a1.461,1.461,0,0,0,2.227-1.1,4.484,4.484,0,0,0-.05-1,13.283,13.283,0,0,0-1.258-2.534c-2.712-2.461,4.487-4.25,5.5-6.689-3.539-.383-4.415,1.793-6.281,3.054a8.967,8.967,0,0,1-.851.324l-1.084-3.619a1.6,1.6,0,0,0-1.61-.327c-1.117.456-.932,1.106-.932,1.106-.024,1.969,1.869,4.191.6,5.534a28.048,28.048,0,0,1-4.139,3.288Z" transform="translate(-33.008 -73.495)"/><path class="cls-4" d="M78.389,207.991c2.249.076,8.341-6.729,9.966-8.394.9-.921,2.551-1.872,2.645-3.148-3.409-.105-3.456,1.348-5.089,3.181a40.093,40.093,0,0,1-3.858,4.007l-1.32.942.908-7.631a1.89,1.89,0,0,0-2.77.525,16.98,16.98,0,0,0-.525,3.362c-.222,1.823-1.292,5.778.043,7.156" transform="translate(-33.008 -73.495)"/><path class="cls-4" d="M241.39,197.749c-1.172,2.932-5.678,9.306-3.19,10.237,2.373-.706,2.284-1.093,3.181-3.316.611-1.517,1.319-2.9,1.982-4.289.729-1.526,4.156-7.331,4.233-8.428a3.411,3.411,0,0,0-2.534.216c-.876.447-.838.763-1.3,1.639-.708,1.357-.78,1.243-2.376,3.941" transform="translate(-33.008 -73.495)"/><path class="cls-4" d="M55.158,208.008c4.106-.056,3.511-6.063,6.852-8.723,2.546-2.026,5.439.676,6.308-2.3-1.04-1.149-1.972-.777-3.634-.387L62.2,197.909l.267-1.478c-2.533-1.2-4.153,3.11-4.953,4.652-.672,1.291-3.56,5.625-2.356,6.925" transform="translate(-33.008 -73.495)"/><path class="cls-4" d="M107.044,208.069c3.1-.184,3.155-2.761,4.344-5.058.814-1.57,3.026-4.9,3.179-6.44-3.149-1.152-4.23,2.787-5.251,4.6-.79,1.407-3.451,5.388-2.272,6.895" transform="translate(-33.008 -73.495)"/><path class="cls-4" d="M88.427,208.1c3.118-.322,3.134-2.663,4.375-5.107.784-1.55,3-4.9,3.151-6.348-2.923-1.532-4.2,2.768-5.22,4.507-.83,1.414-3.436,5.331-2.306,6.948" transform="translate(-33.008 -73.495)"/><path class="cls-4" d="M217.382,207.961c2.974.408,3.512-3.262,4.52-5.152.666-1.248,3.138-5.093,2.993-6.3l-1.912.02c-1.256.867-1.182.773-2,2.378-.479.939-1.079,1.97-1.614,2.96-.693,1.27-3.05,4.841-1.988,6.107Z" transform="translate(-33.008 -73.495)"/><path class="cls-4" d="M224.434,191.037l-1.025,1.524a1.654,1.654,0,0,0-.28.821c0,1.422-.181.329.311.8,2.266-.253,3.5-1.377,3.688-3.308-.489-.574-.773-.351-1.691-.259Z" transform="translate(-33.008 -73.495)"/><path class="cls-4" d="M113.041,194.171c2.26-.243,3.469-1.357,3.685-3.363-1.762-.867-3.381.869-3.851,1.964-.62,1.441.107,1.349.166,1.4" transform="translate(-33.008 -73.495)"/><path class="cls-4" d="M94.413,194.2c2.286-.313,3.539-1.32,3.72-3.363-.639-.433-.633-.462-1.7-.107-1.025.341-3.171,2.413-2.023,3.47" transform="translate(-33.008 -73.495)"/><path class="cls-4" d="M123.686,194.425c1.195-.331,1.13-.648,1.815-1.463a5.975,5.975,0,0,0,1.463-2.062,4.2,4.2,0,0,0-3.848,3.008Z" transform="translate(-33.008 -73.495)"/><path class="cls-4" d="M54.983,152.815l14.849-.13c-.25-1.878-3.528-3.761-3.76-5.531a35.977,35.977,0,0,0-1.047-6.047l-7.462.264Z" transform="translate(-33.008 -73.495)"/><path class="cls-4" d="M51.246,156.157l-.722,7.686c-.081,3.324-2.374,2.872,2.807,2.949,13.123-.031,13.119-.015,29.521-.14-.565-4.29-6.915-8.087-9.119-10.97-.042.273-18.727.617-22.487.481Z" transform="translate(-33.008 -73.495)"/><path class="cls-4" d="M41.633,181.4c2.985-.2,60.2.376,65.165-1.632-7.132-2.549-11.472-4.8-18.741-9.819,0,0-34.124-.534-41.935-.162-2.3,1.811-3.977,7.281-4.263,9.7Z" transform="translate(-33.008 -73.495)"/><path class="cls-3" d="M63.066,73.863l-6.8,7.824c-1.123,1.276-1.495,1.283-1.716,3.414-1.316,12.822-1.168,23.169,1.291,35.908.631,3.276,3,12.681,4.54,15.188l.871,2.212.086.146.654,1.227.366.864.839,2.157,1,2.057s.327.457.76,1.217c.2.344.467.663.677,1.027l1.167,2.178,1.4,2.114,1.465,2.119,1.666,2.17,1.755,2.146,1.259,1.218.838,1.125,1.658,1.719,2.511,2.474,2.547,2.118,2.719,2.22,2.475,1.743c1.112.541,4.191,2.658,4.191,2.658l3.378,1.912,4.5,2.282,4.327,1.732,3.23.865.212-.243c-7.184-1.676-20.125-11.422-25.2-16.419C66.39,148.116,58.7,128.61,57.721,107c-.335-7.362-.243-19.854,2.835-26.473,1.031-2.216,3.232-7.034,3.232-7.034s-.031.073-.722.366Z" transform="translate(-33.008 -73.495)"/><path class="cls-3" d="M65.168,75.465c.155,1.715,1.406,4.9,1.993,6.937.707,2.44,1.891,20.979,2.233,24.586,1.99,20.839,4.912,37.5,18.269,54.538a65.8,65.8,0,0,0,6.663,7.336A64.389,64.389,0,0,0,102,175.284c1.263.892,4.889,2.985,5.75,3.981l.6-.214c-.342-4.288-.852-3.5-3.845-5.453-2.151-1.4-3.559-2.553-5.462-3.979-10.193-7.655-19.553-20.889-23.513-32.667C72.221,127.12,72,115.663,71.958,104.5c-.019-5.993-.228-12-.085-18,.09-3.792.508-2.623-2.462-6.683-.829-1.136-3.759-5.526-3.759-5.526s-.788-.747-.484,1.173" transform="translate(-33.008 -73.495)"/><path class="cls-3" d="M41.592,181.474c.718-.837,2.087-1.857,2.619-2.6,1.529-2.108.013-.057,1.522-2.069l1.379-1.762,1.365-1.91,1.337-2.424.953-2.006.974-2.215,1.124-2.668.667-1.71.642-2.04.692-2.21c.78-2.188,0-.1.778-2.166l.442-2.181.562-2.147.419-2.079.551-2.154.333-2.22.567-3.467.012-.595c-.077-.8.107-1.082-.342-1.445-.421,2.761-2.613,7.979-3.863,10.9-3.492,8.148-8.406,16.191-15.582,22.037-.832.677-3.735,2.455-4.543,3.331a30.54,30.54,0,0,0,3.433,2.934c.718.58,1.121.935,1.75,1.5a4,4,0,0,0,2.212,1.377Z" transform="translate(-33.008 -73.495)"/></g></svg>