<svg id="Layer_2" data-name="Layer 2" xmlns="http://www.w3.org/2000/svg" viewBox="0 0 149.225 149.225"><defs><style>.cls-1{fill:#fff;}.cls-2,.cls-3{fill:#3d6a45;}.cls-3{fill-rule:evenodd;}</style></defs><circle class="cls-1" cx="74.612" cy="74.612" r="74.612"/><path class="cls-2" d="M105.582,182.512l5.522-20.6a38.135,38.135,0,1,1,15.188,15.055Zm21.739-13.269,1.3.778a30.957,30.957,0,1,0-10.59-10.495l.8,1.314-3.082,11.5Z" transform="translate(-69.388 -69.388)"/><path class="cls-3" d="M158.527,148.821c-1.566-.937-3.6-1.982-5.448-1.227-1.415.579-2.319,2.794-3.236,3.925a1.357,1.357,0,0,1-1.755.381,24.678,24.678,0,0,1-12.314-10.549,1.511,1.511,0,0,1,.19-2.063c.886-1.042,2-2.226,2.238-3.632a7.954,7.954,0,0,0-1-4.3c-.743-1.6-1.573-3.879-3.174-4.784a4.351,4.351,0,0,0-4.723.7,9.591,9.591,0,0,0-3.324,7.6,10.772,10.772,0,0,0,.3,2.41,19.949,19.949,0,0,0,2.313,5.329,41.829,41.829,0,0,0,2.414,3.671A37.252,37.252,0,0,0,141.476,156a31.667,31.667,0,0,0,6.529,3.105c2.558.845,4.838,1.725,7.6,1.2a9.2,9.2,0,0,0,6.892-5.126,4.453,4.453,0,0,0,.32-2.616C162.424,150.764,159.984,149.693,158.527,148.821Z" transform="translate(-69.388 -69.388)"/></svg>